<?xml version="1.0" encoding="UTF-8" standalone="no"?>
<!DOCTYPE svg PUBLIC "-//W3C//DTD SVG 1.1//EN"
 "http://www.w3.org/Graphics/SVG/1.1/DTD/svg11.dtd">
<!-- Generated by graphviz version 2.38.0 (20140413.2041)
 -->
<!-- Title: %3 Pages: 1 -->
<svg width="106pt" height="260pt"
 viewBox="0.00 0.00 106.25 260.00" xmlns="http://www.w3.org/2000/svg" xmlns:xlink="http://www.w3.org/1999/xlink">
<g id="graph0" class="graph" transform="scale(1 1) rotate(0) translate(4.0003 256)">
<title>%3</title>
<polygon fill="white" stroke="none" points="-4.0003,4 -4.0003,-256 102.248,-256 102.248,4 -4.0003,4"/>
<!-- &lt;Stage[] Echo&gt; -->
<g id="node1" class="node"><title>&lt;Stage[] Echo&gt;</title>
<ellipse fill="none" stroke="black" cx="49.124" cy="-234" rx="35.9542" ry="18"/>
<text text-anchor="middle" x="49.124" y="-231.6" font-family="Courier,monospace" font-size="8.00">Echo (0/2)</text>
</g>
<!-- &lt;Stage[] Cat&gt; -->
<g id="node2" class="node"><title>&lt;Stage[] Cat&gt;</title>
<ellipse fill="none" stroke="black" cx="49.124" cy="-162" rx="33.0936" ry="18"/>
<text text-anchor="middle" x="49.124" y="-159.6" font-family="Courier,monospace" font-size="8.00">Cat (0/4)</text>
</g>
<!-- &lt;Stage[] Echo&gt;&#45;&gt;&lt;Stage[] Cat&gt; -->
<g id="edge1" class="edge"><title>&lt;Stage[] Echo&gt;&#45;&gt;&lt;Stage[] Cat&gt;</title>
<path fill="none" stroke="black" d="M49.124,-215.7C49.124,-207.98 49.124,-198.71 49.124,-190.11"/>
<polygon fill="black" stroke="black" points="49.124,-180.1 53.6241,-190.1 49.124,-185.1 49.1241,-190.1 49.1241,-190.1 49.1241,-190.1 49.124,-185.1 44.6241,-190.1 49.124,-180.1 49.124,-180.1"/>
</g>
<!-- &lt;Stage[] WordCount&gt; -->
<g id="node3" class="node"><title>&lt;Stage[] WordCount&gt;</title>
<ellipse fill="none" stroke="black" cx="49.124" cy="-90" rx="49.2489" ry="18"/>
<text text-anchor="middle" x="49.124" y="-87.6" font-family="Courier,monospace" font-size="8.00">WordCount (0/4)</text>
</g>
<!-- &lt;Stage[] Cat&gt;&#45;&gt;&lt;Stage[] WordCount&gt; -->
<g id="edge2" class="edge"><title>&lt;Stage[] Cat&gt;&#45;&gt;&lt;Stage[] WordCount&gt;</title>
<path fill="none" stroke="black" d="M49.124,-143.7C49.124,-135.98 49.124,-126.71 49.124,-118.11"/>
<polygon fill="black" stroke="black" points="49.124,-108.1 53.6241,-118.1 49.124,-113.1 49.1241,-118.1 49.1241,-118.1 49.1241,-118.1 49.124,-113.1 44.6241,-118.1 49.124,-108.1 49.124,-108.1"/>
</g>
<!-- &lt;Stage[] Summarize&gt; -->
<g id="node4" class="node"><title>&lt;Stage[] Summarize&gt;</title>
<ellipse fill="none" stroke="black" cx="49.124" cy="-18" rx="49.2489" ry="18"/>
<text text-anchor="middle" x="49.124" y="-15.6" font-family="Courier,monospace" font-size="8.00">Summarize (0/1)</text>
</g>
<!-- &lt;Stage[] WordCount&gt;&#45;&gt;&lt;Stage[] Summarize&gt; -->
<g id="edge3" class="edge"><title>&lt;Stage[] WordCount&gt;&#45;&gt;&lt;Stage[] Summarize&gt;</title>
<path fill="none" stroke="black" d="M49.124,-71.697C49.124,-63.983 49.124,-54.712 49.124,-46.112"/>
<polygon fill="black" stroke="black" points="49.124,-36.104 53.6241,-46.104 49.124,-41.104 49.1241,-46.104 49.1241,-46.104 49.1241,-46.104 49.124,-41.104 44.6241,-46.104 49.124,-36.104 49.124,-36.104"/>
</g>
</g>
</svg>
