<?xml version="1.0" encoding="UTF-8" standalone="no"?>
<!DOCTYPE svg PUBLIC "-//W3C//DTD SVG 1.1//EN"
 "http://www.w3.org/Graphics/SVG/1.1/DTD/svg11.dtd">
<!-- Generated by graphviz version 2.38.0 (20140413.2041)
 -->
<!-- Title: %3 Pages: 1 -->
<svg width="150pt" height="152pt"
 viewBox="0.00 0.00 150.00 152.00" xmlns="http://www.w3.org/2000/svg" xmlns:xlink="http://www.w3.org/1999/xlink">
<g id="graph0" class="graph" transform="scale(1 1) rotate(0) translate(-4 156)">
<title>%3</title>
<polygon fill="white" stroke="none" points="4,-4 4,-156 154,-156 154,-4 4,-4"/>
<g id="clust1" class="cluster"><title>cluster_&lt;Stage[] ToolB&gt;</title>
<polygon fill="none" stroke="grey" stroke-dasharray="1,5" points="8,-8 8,-76 150,-76 150,-8 8,-8"/>
<text text-anchor="start" x="47.7949" y="-65.6" font-family="Courier,monospace" font-size="8.00">Stage[] ToolB</text>
</g>
<g id="clust2" class="cluster"><title>cluster_&lt;Stage[] ToolA&gt;</title>
<polygon fill="none" stroke="grey" stroke-dasharray="1,5" points="8,-84 8,-152 150,-152 150,-84 8,-84"/>
<text text-anchor="start" x="47.7949" y="-141.6" font-family="Courier,monospace" font-size="8.00">Stage[] ToolA</text>
</g>
<!-- &lt;Task[id_4501042384] ToolB {&#39;i&#39;: 1}&gt; -->
<g id="node1" class="node"><title>&lt;Task[id_4501042384] ToolB {&#39;i&#39;: 1}&gt;</title>
<g id="a_node1"><a xlink:href="#" xlink:title="i: 1" target="_blank">
<ellipse fill="none" stroke="black" cx="115" cy="-34" rx="27" ry="18"/>
<text text-anchor="middle" x="115" y="-31.6" font-family="Courier,monospace" font-size="8.00">i: 1</text>
</a>
</g>
</g>
<!-- &lt;Task[id_4500975568] ToolB {&#39;i&#39;: 2}&gt; -->
<g id="node2" class="node"><title>&lt;Task[id_4500975568] ToolB {&#39;i&#39;: 2}&gt;</title>
<g id="a_node2"><a xlink:href="#" xlink:title="i: 2" target="_blank">
<ellipse fill="none" stroke="black" cx="43" cy="-34" rx="27" ry="18"/>
<text text-anchor="middle" x="43" y="-31.6" font-family="Courier,monospace" font-size="8.00">i: 2</text>
</a>
</g>
</g>
<!-- &lt;Task[id_4501080208] ToolA {&#39;i&#39;: 1}&gt; -->
<g id="node3" class="node"><title>&lt;Task[id_4501080208] ToolA {&#39;i&#39;: 1}&gt;</title>
<g id="a_node3"><a xlink:href="#" xlink:title="i: 1" target="_blank">
<ellipse fill="none" stroke="black" cx="115" cy="-110" rx="27" ry="18"/>
<text text-anchor="middle" x="115" y="-107.6" font-family="Courier,monospace" font-size="8.00">i: 1</text>
</a>
</g>
</g>
<!-- &lt;Task[id_4501080208] ToolA {&#39;i&#39;: 1}&gt;&#45;&gt;&lt;Task[id_4501042384] ToolB {&#39;i&#39;: 1}&gt; -->
<g id="edge1" class="edge"><title>&lt;Task[id_4501080208] ToolA {&#39;i&#39;: 1}&gt;&#45;&gt;&lt;Task[id_4501042384] ToolB {&#39;i&#39;: 1}&gt;</title>
<path fill="none" stroke="black" d="M115,-91.837C115,-83.058 115,-72.163 115,-62.267"/>
<polygon fill="black" stroke="black" points="118.5,-62.07 115,-52.07 111.5,-62.07 118.5,-62.07"/>
</g>
<!-- &lt;Task[id_4501041360] ToolA {&#39;i&#39;: 2}&gt; -->
<g id="node4" class="node"><title>&lt;Task[id_4501041360] ToolA {&#39;i&#39;: 2}&gt;</title>
<g id="a_node4"><a xlink:href="#" xlink:title="i: 2" target="_blank">
<ellipse fill="none" stroke="black" cx="43" cy="-110" rx="27" ry="18"/>
<text text-anchor="middle" x="43" y="-107.6" font-family="Courier,monospace" font-size="8.00">i: 2</text>
</a>
</g>
</g>
<!-- &lt;Task[id_4501041360] ToolA {&#39;i&#39;: 2}&gt;&#45;&gt;&lt;Task[id_4500975568] ToolB {&#39;i&#39;: 2}&gt; -->
<g id="edge2" class="edge"><title>&lt;Task[id_4501041360] ToolA {&#39;i&#39;: 2}&gt;&#45;&gt;&lt;Task[id_4500975568] ToolB {&#39;i&#39;: 2}&gt;</title>
<path fill="none" stroke="black" d="M43,-91.837C43,-83.058 43,-72.163 43,-62.267"/>
<polygon fill="black" stroke="black" points="46.5001,-62.07 43,-52.07 39.5001,-62.07 46.5001,-62.07"/>
</g>
</g>
</svg>
