<?xml version="1.0" encoding="UTF-8" standalone="no"?>
<!DOCTYPE svg PUBLIC "-//W3C//DTD SVG 1.1//EN"
 "http://www.w3.org/Graphics/SVG/1.1/DTD/svg11.dtd">
<!-- Generated by graphviz version 2.38.0 (20140413.2041)
 -->
<!-- Title: %3 Pages: 1 -->
<svg width="294pt" height="152pt"
 viewBox="0.00 0.00 294.00 152.00" xmlns="http://www.w3.org/2000/svg" xmlns:xlink="http://www.w3.org/1999/xlink">
<g id="graph0" class="graph" transform="scale(1 1) rotate(0) translate(-4 156)">
<title>%3</title>
<polygon fill="white" stroke="none" points="4,-4 4,-156 298,-156 298,-4 4,-4"/>
<g id="clust1" class="cluster"><title>cluster_&lt;Stage[] ToolA&gt;</title>
<polygon fill="none" stroke="grey" stroke-dasharray="1,5" points="80,-84 80,-152 222,-152 222,-84 80,-84"/>
<text text-anchor="start" x="119.795" y="-141.6" font-family="Courier,monospace" font-size="8.00">Stage[] ToolA</text>
</g>
<g id="clust2" class="cluster"><title>cluster_&lt;Stage[] ToolB&gt;</title>
<polygon fill="none" stroke="grey" stroke-dasharray="1,5" points="8,-8 8,-76 294,-76 294,-8 8,-8"/>
<text text-anchor="start" x="119.795" y="-65.6" font-family="Courier,monospace" font-size="8.00">Stage[] ToolB</text>
</g>
<!-- &lt;Task[id_4501081872] ToolA {&#39;i&#39;: 1}&gt; -->
<g id="node1" class="node"><title>&lt;Task[id_4501081872] ToolA {&#39;i&#39;: 1}&gt;</title>
<g id="a_node1"><a xlink:href="#" xlink:title="i: 1" target="_blank">
<ellipse fill="none" stroke="black" cx="187" cy="-110" rx="27" ry="18"/>
<text text-anchor="middle" x="187" y="-107.6" font-family="Courier,monospace" font-size="8.00">i: 1</text>
</a>
</g>
</g>
<!-- &lt;Task[id_4501097936] ToolB {&#39;i&#39;: 1, &#39;j&#39;: 1}&gt; -->
<g id="node3" class="node"><title>&lt;Task[id_4501097936] ToolB {&#39;i&#39;: 1, &#39;j&#39;: 1}&gt;</title>
<g id="a_node3"><a xlink:href="#" xlink:title="i: 1 \nj: 1" target="_blank">
<ellipse fill="none" stroke="black" cx="259" cy="-34" rx="27" ry="18"/>
<text text-anchor="middle" x="259" y="-35.6" font-family="Courier,monospace" font-size="8.00">i: 1 </text>
<text text-anchor="middle" x="259" y="-27.6" font-family="Courier,monospace" font-size="8.00">j: 1</text>
</a>
</g>
</g>
<!-- &lt;Task[id_4501081872] ToolA {&#39;i&#39;: 1}&gt;&#45;&gt;&lt;Task[id_4501097936] ToolB {&#39;i&#39;: 1, &#39;j&#39;: 1}&gt; -->
<g id="edge1" class="edge"><title>&lt;Task[id_4501081872] ToolA {&#39;i&#39;: 1}&gt;&#45;&gt;&lt;Task[id_4501097936] ToolB {&#39;i&#39;: 1, &#39;j&#39;: 1}&gt;</title>
<path fill="none" stroke="black" d="M202.76,-95.226C209.19,-89.439 216.59,-82.544 223,-76 228.56,-70.322 234.34,-63.964 239.6,-57.98"/>
<polygon fill="black" stroke="black" points="242.479,-60.0024 246.38,-50.152 237.187,-55.4195 242.479,-60.0024"/>
</g>
<!-- &lt;Task[id_4501112400] ToolB {&#39;i&#39;: 1, &#39;j&#39;: 2}&gt; -->
<g id="node4" class="node"><title>&lt;Task[id_4501112400] ToolB {&#39;i&#39;: 1, &#39;j&#39;: 2}&gt;</title>
<g id="a_node4"><a xlink:href="#" xlink:title="i: 1 \nj: 2" target="_blank">
<ellipse fill="none" stroke="black" cx="187" cy="-34" rx="27" ry="18"/>
<text text-anchor="middle" x="187" y="-35.6" font-family="Courier,monospace" font-size="8.00">i: 1 </text>
<text text-anchor="middle" x="187" y="-27.6" font-family="Courier,monospace" font-size="8.00">j: 2</text>
</a>
</g>
</g>
<!-- &lt;Task[id_4501081872] ToolA {&#39;i&#39;: 1}&gt;&#45;&gt;&lt;Task[id_4501112400] ToolB {&#39;i&#39;: 1, &#39;j&#39;: 2}&gt; -->
<g id="edge2" class="edge"><title>&lt;Task[id_4501081872] ToolA {&#39;i&#39;: 1}&gt;&#45;&gt;&lt;Task[id_4501112400] ToolB {&#39;i&#39;: 1, &#39;j&#39;: 2}&gt;</title>
<path fill="none" stroke="black" d="M187,-91.837C187,-83.058 187,-72.163 187,-62.267"/>
<polygon fill="black" stroke="black" points="190.5,-62.07 187,-52.07 183.5,-62.07 190.5,-62.07"/>
</g>
<!-- &lt;Task[id_4501096784] ToolA {&#39;i&#39;: 2}&gt; -->
<g id="node2" class="node"><title>&lt;Task[id_4501096784] ToolA {&#39;i&#39;: 2}&gt;</title>
<g id="a_node2"><a xlink:href="#" xlink:title="i: 2" target="_blank">
<ellipse fill="none" stroke="black" cx="115" cy="-110" rx="27" ry="18"/>
<text text-anchor="middle" x="115" y="-107.6" font-family="Courier,monospace" font-size="8.00">i: 2</text>
</a>
</g>
</g>
<!-- &lt;Task[id_4501111952] ToolB {&#39;i&#39;: 2, &#39;j&#39;: 1}&gt; -->
<g id="node5" class="node"><title>&lt;Task[id_4501111952] ToolB {&#39;i&#39;: 2, &#39;j&#39;: 1}&gt;</title>
<g id="a_node5"><a xlink:href="#" xlink:title="i: 2 \nj: 1" target="_blank">
<ellipse fill="none" stroke="black" cx="115" cy="-34" rx="27" ry="18"/>
<text text-anchor="middle" x="115" y="-35.6" font-family="Courier,monospace" font-size="8.00">i: 2 </text>
<text text-anchor="middle" x="115" y="-27.6" font-family="Courier,monospace" font-size="8.00">j: 1</text>
</a>
</g>
</g>
<!-- &lt;Task[id_4501096784] ToolA {&#39;i&#39;: 2}&gt;&#45;&gt;&lt;Task[id_4501111952] ToolB {&#39;i&#39;: 2, &#39;j&#39;: 1}&gt; -->
<g id="edge3" class="edge"><title>&lt;Task[id_4501096784] ToolA {&#39;i&#39;: 2}&gt;&#45;&gt;&lt;Task[id_4501111952] ToolB {&#39;i&#39;: 2, &#39;j&#39;: 1}&gt;</title>
<path fill="none" stroke="black" d="M115,-91.837C115,-83.058 115,-72.163 115,-62.267"/>
<polygon fill="black" stroke="black" points="118.5,-62.07 115,-52.07 111.5,-62.07 118.5,-62.07"/>
</g>
<!-- &lt;Task[id_4501112656] ToolB {&#39;i&#39;: 2, &#39;j&#39;: 2}&gt; -->
<g id="node6" class="node"><title>&lt;Task[id_4501112656] ToolB {&#39;i&#39;: 2, &#39;j&#39;: 2}&gt;</title>
<g id="a_node6"><a xlink:href="#" xlink:title="i: 2 \nj: 2" target="_blank">
<ellipse fill="none" stroke="black" cx="43" cy="-34" rx="27" ry="18"/>
<text text-anchor="middle" x="43" y="-35.6" font-family="Courier,monospace" font-size="8.00">i: 2 </text>
<text text-anchor="middle" x="43" y="-27.6" font-family="Courier,monospace" font-size="8.00">j: 2</text>
</a>
</g>
</g>
<!-- &lt;Task[id_4501096784] ToolA {&#39;i&#39;: 2}&gt;&#45;&gt;&lt;Task[id_4501112656] ToolB {&#39;i&#39;: 2, &#39;j&#39;: 2}&gt; -->
<g id="edge4" class="edge"><title>&lt;Task[id_4501096784] ToolA {&#39;i&#39;: 2}&gt;&#45;&gt;&lt;Task[id_4501112656] ToolB {&#39;i&#39;: 2, &#39;j&#39;: 2}&gt;</title>
<path fill="none" stroke="black" d="M99.238,-95.226C92.813,-89.439 85.405,-82.544 79,-76 73.442,-70.322 67.662,-63.964 62.402,-57.98"/>
<polygon fill="black" stroke="black" points="64.8134,-55.4182 55.62,-50.152 59.5228,-60.0018 64.8134,-55.4182"/>
</g>
</g>
</svg>
